<?xml version="1.0" encoding="UTF-8" standalone="no"?>
<svg
   xmlns:dc="http://purl.org/dc/elements/1.1/"
   xmlns:cc="http://creativecommons.org/ns#"
   xmlns:rdf="http://www.w3.org/1999/02/22-rdf-syntax-ns#"
   xmlns:svg="http://www.w3.org/2000/svg"
   xmlns="http://www.w3.org/2000/svg"
   width="100mm"
   height="100mm"
   viewBox="0 0 100 100"
   version="1.1"
   id="svg8">
  <defs
     id="defs2" />
  <metadata
     id="metadata5">
    <rdf:RDF>
      <cc:Work
         rdf:about="">
        <dc:format>image/svg+xml</dc:format>
        <dc:type
           rdf:resource="http://purl.org/dc/dcmitype/StillImage" />
        <dc:title></dc:title>
      </cc:Work>
    </rdf:RDF>
  </metadata>
  <g
     id="layer1"
     transform="matrix(1.0811466,0,0,1.0811466,-3.9225291,-216.81664)">
    <path
       id="path28"
       d="m 22.005917,202.4338 c -1.542197,1.16153 -2.976159,2.4513 -4.395048,3.7579 -1.367013,1.20661 -2.339849,2.75131 -3.164023,4.35882 -0.947895,1.89702 -1.137519,3.97085 -1.126177,6.05639 0.0076,2.2032 0.400911,4.37553 0.831856,6.52803 0.512525,2.28526 1.196113,4.52461 1.810088,6.78301 0.677328,2.41175 1.375392,4.81851 2.007474,7.24252 0.609142,2.38644 1.146446,4.7903 1.664463,7.19788 0.490643,2.27296 1.227934,4.48139 1.91853,6.69894 0.656985,2.12228 1.1886,4.27711 1.687887,6.44072 0.554905,2.19469 1.164599,4.37502 1.645457,6.58756 0.524233,2.51719 0.433251,5.05254 -0.042,7.56174 -0.424779,2.19445 -1.376743,3.59234 -2.878905,5.17847 -1.267177,1.1939 -2.516341,2.40529 -3.834214,3.54347 -1.227277,0.97763 -2.342409,2.08041 -3.502723,3.13264 -2.627648,2.01352 -1.138987,0.91739 -7.3989976,4.37695 -0.2218475,0.1228 -0.4854974,0.14856 -0.7193787,0.24666 -0.6849443,0.28619 -1.325533,0.60062 -2.0325345,0.84228 0,0 5.5928558,-4.37185 5.5928558,-4.37185 v 0 c 0.680692,-0.26718 1.349608,-0.55803 2.018426,-0.85381 0.223472,-0.0988 0.876658,-0.42895 0.667828,-0.30213 -8.174507,4.96516 -6.7697336,4.06723 -4.6927668,2.71885 1.2261299,-0.97293 2.2303518,-2.20151 3.5069158,-3.12137 0.413617,-0.36982 0.861138,-0.70076 1.274387,-1.07112 0.879774,-0.78844 1.66998,-1.6797 2.581654,-2.4352 0.887084,-0.82583 1.899343,-1.76744 2.431403,-2.87829 0.03041,-0.0633 0.648588,-1.91232 0.657725,-1.93954 0.526916,-2.41138 0.683608,-4.86342 0.16978,-7.29932 -0.479865,-2.20842 -1.085702,-4.38658 -1.642974,-6.57629 -0.50804,-2.14482 -1.023812,-4.28677 -1.661195,-6.398 -0.69373,-2.23864 -1.448711,-4.46399 -1.950339,-6.75603 -0.498457,-2.40218 -1.03455,-4.79771 -1.638762,-7.17547 -0.624562,-2.42359 -1.327594,-4.82677 -2.0018,-7.23687 -0.613376,-2.27143 -1.3362854,-4.5126 -1.8503906,-6.81093 -0.4603739,-2.18902 -0.8483252,-4.40453 -0.8943056,-6.64673 -0.040391,-2.16404 0.066969,-4.33927 0.9655628,-6.34804 0.7945079,-1.66698 1.7118224,-3.30611 3.0527324,-4.60058 1.429736,-1.27008 2.7816,-2.63604 4.338807,-3.75542 0,0 6.602663,-2.6757 6.602663,-2.6757 z"
       style="stroke-width:0.94982415" />
    <path
       id="path36"
       d="m 50.757665,248.55129 c -1.842027,0.91292 -5.225289,2.61299 3.80213,-2.23463 0.465933,-0.25008 -0.89584,0.56317 -1.329271,0.86622 -1.313335,0.91822 -2.429071,1.95685 -3.533556,3.1104 -1.613571,1.86818 -2.878325,4.05124 -3.663377,6.39248 -0.06944,0.61336 -0.162701,0.91605 0.0027,1.52813 0.344182,1.26987 1.393414,2.40076 2.133969,3.44608 1.456674,1.80611 2.624859,3.33421 4.73181,4.39149 0.858323,0.35652 1.838107,0.34662 2.694374,-0.0399 0.177486,-0.0801 0.670414,-0.39652 0.500787,-0.30064 -1.8758,1.05789 -3.746319,2.12512 -5.619483,3.18767 1.37041,-1.19338 1.4846,-3.24106 1.758026,-4.92384 0.600056,-3.3744 1.068846,-6.76945 1.481947,-10.17124 0.388675,-3.14677 0.833747,-6.28667 1.205774,-9.43543 0.223937,-2.55523 0.405705,-4.91205 1.220779,-7.35765 0.549443,-1.68518 1.222653,-3.33222 1.6607,-5.05145 0.831408,-3.26873 0.693181,-2.15622 6.818559,-3.82486 0.229973,-0.0623 -0.06297,0.47247 -0.0955,0.70862 -0.03883,0.28239 -0.07913,0.56502 -0.118639,0.84753 -0.340988,2.123 -0.68976,4.24547 -0.989116,6.37488 -0.352696,2.32101 -0.695743,4.64442 -0.985985,6.97418 -0.330004,2.32478 -0.28588,4.65816 -0.157616,6.99379 0.09225,2.12996 0.59556,4.18983 1.162273,6.23357 0.576715,1.67509 1.225807,3.31377 1.9337,4.93608 0.652453,1.28255 1.252294,2.63344 2.348326,3.59876 0.168898,0.10302 0.337795,0.20636 0.5067,0.30936 0,0 -5.987975,3.83096 -5.987975,3.83096 v 0 c -0.187632,-0.1365 -0.375307,-0.27287 -0.562957,-0.40944 -1.104547,-1.09016 -1.815432,-2.46802 -2.476669,-3.86045 -0.708854,-1.65617 -1.391505,-3.31883 -1.961342,-5.03008 -0.589752,-2.09119 -1.094977,-4.19911 -1.216564,-6.37815 -0.132803,-2.37242 -0.220664,-4.74262 0.108779,-7.10683 0.268587,-2.33282 0.61933,-4.65708 0.971755,-6.97837 0.272198,-2.12431 0.640065,-4.23601 0.958087,-6.35365 0.03345,-0.29455 0.163652,-1.49581 0.190301,-1.51271 2.091106,-1.32726 4.363287,-2.3452 6.5333,-3.53911 0.06114,-0.0305 -0.157107,0.002 -0.201931,0.0554 -0.160681,0.19198 -0.330917,0.89478 -0.378692,1.05871 -0.403731,1.76324 -1.110315,3.42459 -1.679744,5.1385 -0.225562,0.61361 -0.552894,1.44241 -0.698921,2.08383 -0.383225,1.68321 -0.397176,3.44362 -0.615303,5.14925 -0.385211,3.16374 -0.862088,6.31516 -1.286214,9.47385 -0.389363,3.39213 -0.805477,6.7834 -1.384455,10.14923 -0.262887,1.85143 -0.403581,3.80735 -1.432201,5.42564 -1.345889,0.78198 -5.558341,4.4273 -8.558247,4.09989 -0.759241,-0.0828 -0.862994,-0.18803 -1.572995,-0.48484 -2.053655,-1.19404 -3.394255,-2.84409 -4.854637,-4.68738 -1.282094,-1.74177 -2.687567,-3.22796 -2.480085,-5.53572 0.732473,-2.44325 2.026926,-4.72001 3.615506,-6.70796 0.352009,-0.39624 0.68506,-0.8102 1.056012,-1.18878 3.250906,-3.31772 8.088267,-5.61651 12.035291,-7.64766 0,0 -5.590656,4.39631 -5.590656,4.39631 z"
       style="stroke-width:0.94982415" />
    <path
       id="path38"
       d="m 78.191105,241.51621 c 1.76157,1.25137 3.469358,2.59802 5.099949,4.01805 2.054724,1.87411 3.845491,4.0057 5.504154,6.23101 1.536509,2.1694 2.962862,4.41234 4.444577,6.61881 0.840157,1.258 1.485933,2.61744 2.094978,3.99675 0,0 -6.143824,3.45747 -6.143824,3.45747 v 0 c -0.586437,-1.34541 -1.202882,-2.67394 -2.025499,-3.89625 -1.451735,-2.21028 -2.855178,-4.45341 -4.396717,-6.60316 -1.628347,-2.18836 -3.396371,-4.28021 -5.45256,-6.08313 -1.604459,-1.37523 -3.254781,-2.75105 -5.078358,-3.82252 0,0 5.9533,-3.91703 5.9533,-3.91703 z"
       style="stroke-width:0.94982415" />
    <path
       id="path46"
       d="m 92.617147,242.37499 c -1.179037,2.85265 -2.432707,5.6713 -3.776711,8.44972 -1.348074,2.48327 -2.729042,4.94396 -3.959406,7.4888 -0.972051,2.19378 -1.816757,4.43761 -2.758835,6.64392 -0.144154,0.33977 -0.288352,0.68026 -0.432491,1.02038 0,0 -6.401035,2.94367 -6.401035,2.94367 v 0 c 0.145337,-0.34053 0.290592,-0.6813 0.435911,-1.02198 0.940642,-2.22114 1.845546,-4.45296 2.766166,-6.68325 1.227354,-2.56105 2.573263,-5.05494 3.998977,-7.5113 1.345081,-2.72417 2.601434,-5.48834 3.688297,-8.32708 0,0 6.439127,-3.00288 6.439127,-3.00288 z"
       style="stroke-width:0.94982415" />
  </g>
</svg>
